<?xml version="1.0" encoding="utf-8"?>
<!-- Generator: Adobe Illustrator 23.0.0, SVG Export Plug-In . SVG Version: 6.00 Build 0)  -->
<svg version="1.1" id="Warstwa_1" xmlns="http://www.w3.org/2000/svg" xmlns:xlink="http://www.w3.org/1999/xlink" x="0px" y="0px"
	 viewBox="0 0 668.5 303.1" style="enable-background:new 0 0 668.5 303.1;" xml:space="preserve">
<style type="text/css">
	.st0{fill:#1D1D1B;}
</style>
<rect class="st0" width="31.4" height="151"/>
<polygon class="st0" points="31.4,0 62.8,151 94.2,151 62.8,0 "/>
<polygon class="st0" points="125.5,0 94.2,151 125.5,151 156.9,0 "/>
<rect x="156.9" class="st0" width="31.4" height="303.3"/>
<rect x="313.8" y="151" class="st0" width="31.4" height="152.3"/>
<polygon class="st0" points="282.4,303.3 251,303.3 282.4,151 313.8,151 "/>
<polygon class="st0" points="219.7,303.3 251,303.3 219.7,151 188.2,151 "/>
<rect y="273" class="st0" width="156.9" height="30.3"/>
<rect y="151" class="st0" width="156.9" height="30.5"/>
<polygon class="st0" points="0,242.5 0,273 156.9,212 156.9,181.5 "/>
<g>
	<path class="st0" d="M381.1,151h12.3l8.2,25.5h0.1l8.2-25.5h12.3v40h-9.5v-24.9h-0.1l-7.5,24.9H398l-7.5-24.9h-0.1V191h-9.5
		L381.1,151L381.1,151z"/>
	<path class="st0" d="M454.9,162.4v28.7h-9V187h-0.1c-1.5,2.6-4.3,5-9.4,5c-5.5,0-9.3-3.6-9.3-10.2v-19.4h9v16.5
		c0,4.3,1.5,5.8,4.5,5.8c3.4,0,5.4-1.7,5.4-5.7v-16.6L454.9,162.4L454.9,162.4z"/>
	<path class="st0" d="M472,169.2v-0.1h-12.8v-6.7h24v6.4l-13.9,15.4v0.1h14.5v6.7h-25.7v-6.4L472,169.2z"/>
	<path class="st0" d="M505.2,182.4h8.9c-1.6,5.8-6,9.6-13.8,9.6c-9.5,0-15.3-6.3-15.3-15.2c0-8.7,5.7-15.2,14.8-15.2
		c9.8,0,14.8,7.2,14.8,17.6H494c0,4,3,6.2,6.2,6.2C503.2,185.2,504.6,183.8,505.2,182.4z M493.9,173.7h11.7c0-4-2.4-6-5.8-6
		S493.9,169.7,493.9,173.7z"/>
	<path class="st0" d="M545,162.4v28.7h-9V187h-0.1c-1.5,2.6-4.3,5-9.4,5c-5.5,0-9.3-3.6-9.3-10.2v-19.4h9v16.5
		c0,4.3,1.5,5.8,4.5,5.8c3.4,0,5.4-1.7,5.4-5.7v-16.6L545,162.4L545,162.4z"/>
	<path class="st0" d="M593.7,171.7v19.4h-9.1v-16.5c0-4.3-0.9-5.8-4.1-5.8c-2.9,0-4.7,1.7-4.7,5.7v16.6h-9v-16.5
		c0-4.3-0.9-5.8-4.1-5.8c-2.8,0-4.7,1.7-4.7,5.7v16.6h-9v-28.7h9v4.1h0.1c1.5-2.6,4.7-5,9-5c3.8,0,6.4,2.1,7.5,5h0.1
		c2.5-2.9,5-5,9.6-5C590.3,161.5,593.7,165.1,593.7,171.7z"/>
	<path class="st0" d="M410.4,207v8.2l-18.3,23.5v0.1H411v8.2h-31.2v-8.2l18.3-23.5l0,0h-17.2v-8.2L410.4,207L410.4,207z"/>
	<path class="st0" d="M427.5,223.7c-3.3,0-4.8,1.2-5.1,4H414c0.3-5.5,4.2-10.1,13.5-10.1c8.1,0,12.5,3.1,12.5,12.2V243
		c0,1.5,0.6,2.1,1.7,2.1v2.1c-1.8,0.7-3.4,0.9-5.2,0.9c-4,0-5.2-1.9-5.2-3.9h-0.1c-1.8,2.1-5.2,3.9-9,3.9c-6,0-9.4-3.4-9.4-8.2
		c0-5.7,4.2-8.3,10.9-9.7c3.7-0.7,7.3-1.3,7.3-3.7C431.1,224.7,429.9,223.7,427.5,223.7z M431.1,236.6v-3.5
		c-1.1,0.5-2.5,0.8-4.6,1.3c-3.5,0.8-4.7,2.2-4.7,4c0,2.3,1.4,3.4,3.6,3.4C429.3,241.8,431.1,239.3,431.1,236.6z"/>
	<path class="st0" d="M489.2,227.7v19.4h-9.1v-16.5c0-4.3-0.9-5.8-4.1-5.8c-2.9,0-4.7,1.7-4.7,5.7v16.6h-9v-16.5
		c0-4.3-0.9-5.8-4.1-5.8c-2.8,0-4.7,1.7-4.7,5.7v16.6h-9v-28.7h9v4.1h0.1c1.5-2.6,4.7-5,9-5c3.8,0,6.4,2.1,7.5,5h0.1
		c2.5-2.9,5-5,9.6-5C485.8,217.5,489.2,221.1,489.2,227.7z"/>
	<path class="st0" d="M502.4,207v21.1l8.4-9.7h10.7l-10.1,10.8l11.3,17.9h-10.6l-6.8-11.4l-2.9,3v8.5h-9v-40L502.4,207L502.4,207z"
		/>
	<path class="st0" d="M536.6,248c-9.6,0-15.3-6.3-15.3-15.2s5.8-15.2,15.3-15.2s15.3,6.3,15.3,15.2C551.9,241.6,546.1,248,536.6,248
		z M536.6,241.2c3.9,0,6.3-3,6.3-8.5s-2.4-8.5-6.3-8.5c-4,0-6.4,3-6.4,8.5S532.6,241.2,536.6,241.2z"/>
	<path class="st0" d="M560.4,218.4l4.3,17.5h0.1l4.7-17.5h7.8l4.7,17.5h0.1l4.3-17.5h9l-8,28.7H579l-5.5-18.1h-0.1l-5.5,18.1h-8.4
		l-8-28.7H560.4z"/>
	<path class="st0" d="M615.3,238.4h8.9c-1.6,5.8-6,9.6-13.8,9.6c-9.5,0-15.3-6.3-15.3-15.2c0-8.7,5.7-15.2,14.8-15.2
		c9.8,0,14.8,7.2,14.8,17.6h-20.6c0,4,3,6.2,6.2,6.2C613.3,241.2,614.8,239.8,615.3,238.4z M604.1,229.6h11.7c0-4-2.4-6-5.8-6
		C606.6,223.6,604.1,225.7,604.1,229.6z"/>
	<path class="st0" d="M387.2,274.4l4.3,17.5h0.1l4.7-17.5h7.8l4.7,17.5h0.1l4.3-17.5h9l-8,28.7h-8.4l-5.5-18.1h-0.1l-5.5,18.1h-8.4
		l-8-28.7H387.2z"/>
	<path class="st0" d="M435,263h12.3l8.2,25.5h0.1l8.2-25.5h12.3v40h-9.5v-24.9h-0.1L459,303h-7.1l-7.5-24.9h-0.1V303h-9.5L435,263
		L435,263z"/>
	<path class="st0" d="M494.4,279.7c-3.3,0-4.8,1.2-5.1,4h-8.4c0.3-5.5,4.2-10.1,13.5-10.1c8.1,0,12.5,3.1,12.5,12.2V299
		c0,1.5,0.6,2.1,1.7,2.1v2.1c-1.8,0.7-3.4,0.9-5.2,0.9c-4,0-5.2-1.9-5.2-3.9h-0.1c-1.8,2.1-5.2,3.9-9,3.9c-6,0-9.4-3.4-9.4-8.2
		c0-5.7,4.2-8.3,10.9-9.7c3.7-0.7,7.3-1.3,7.3-3.7C498.1,280.7,496.9,279.7,494.4,279.7z M498.1,292.6v-3.5
		c-1.1,0.5-2.5,0.8-4.6,1.3c-3.5,0.8-4.7,2.2-4.7,4c0,2.3,1.4,3.4,3.6,3.4C496.2,297.8,498.1,295.3,498.1,292.6z"/>
	<path class="st0" d="M520.7,263v40h-9v-40H520.7z"/>
	<path class="st0" d="M554.8,288.7c0,9.4-4.9,15.2-12.5,15.2c-4.1,0-7.2-2.2-8.3-3.8h-0.1v2.9h-9v-40h9v14.2h0.1
		c1.1-1.5,4.1-3.8,8.3-3.8C549.9,273.5,554.8,279.3,554.8,288.7z M545.8,288.7c0-5.6-2.2-8.5-5.9-8.5c-3.7,0-5.9,2.9-5.9,8.5
		s2.2,8.5,5.9,8.5C543.6,297.2,545.8,294.3,545.8,288.7z"/>
	<path class="st0" d="M571.8,304c-9.6,0-15.3-6.3-15.3-15.2s5.8-15.2,15.3-15.2s15.3,6.3,15.3,15.2C587.1,297.6,581.3,304,571.8,304
		z M571.8,297.2c3.9,0,6.3-3,6.3-8.5s-2.4-8.5-6.3-8.5c-4,0-6.4,3-6.4,8.5S567.8,297.2,571.8,297.2z"/>
	<path class="st0" d="M608.6,274.1v7.8h-0.1c-4.6-0.8-9.5,1.7-9.5,7.8V303h-9v-28.7h9v4.7h0.1c1.4-3.2,3.9-5.2,7-5.2
		C606.9,273.9,607.6,273.9,608.6,274.1z"/>
	<path class="st0" d="M619.5,263v21.1l8.4-9.7h10.7l-10.1,10.8l11.3,17.9h-10.6l-6.8-11.4l-2.9,3v8.5h-9v-40L619.5,263L619.5,263z"
		/>
	<path class="st0" d="M668.5,274.4v28.7h-9V299h-0.1c-1.5,2.6-4.3,5-9.4,5c-5.5,0-9.3-3.6-9.3-10.2v-19.4h9v16.5
		c0,4.3,1.5,5.8,4.5,5.8c3.4,0,5.4-1.7,5.4-5.7v-16.6H668.5L668.5,274.4z"/>
</g>
</svg>
