<?xml version="1.0" encoding="UTF-8"?><svg xmlns="http://www.w3.org/2000/svg" viewBox="0 0 345.2 303.3"><g id="a"/><g id="b"><g id="c"><g><rect width="31.4" height="151"/><polygon points="31.4 0 62.8 151 94.2 151 62.8 0 31.4 0"/><polygon points="125.5 0 94.2 151 125.5 151 156.9 0 125.5 0"/><rect x="156.9" width="31.4" height="303.3"/><rect x="313.8" y="151" width="31.4" height="152.3"/><polygon points="282.4 303.3 251 303.3 282.4 151 313.8 151 282.4 303.3"/><polygon points="219.7 303.3 251 303.3 219.7 151 188.2 151 219.7 303.3"/><rect y="273" width="156.9" height="30.3"/><rect y="151" width="156.9" height="30.5"/><polygon points="0 242.5 0 273 156.9 212 156.9 181.5 0 242.5"/></g></g></g></svg>